
        <svg xmlns="http://www.w3.org/2000/svg" xmlns:xlink="http://www.w3.org/1999/xlink" version="1.1" width="3187.5" 
        height="1122.4492111947202" viewBox="0 0 3187.5 1122.4492111947202">
			
			<g transform="scale(9.375) translate(10, 10)">
				<defs id="SvgjsDefs1446"></defs><g id="SvgjsG1447" featureKey="symbolFeature-0" transform="matrix(1.6005121756186993,0,0,1.6005121756186993,-1.2644045576840783,-1.6005121756186993)" fill="#5a5d9d"><title xmlns="http://www.w3.org/2000/svg">ecommerce, commerce, shop, business, marketing, bag</title><g xmlns="http://www.w3.org/2000/svg" data-name="Layer 2"><polygon points="44.86 62.81 52 61.24 52 47 54 47 54 61.25 63.27 63.31 54.02 16 44.86 62.81"></polygon><path d="M52.18,15H41v5.18a3,3,0,1,1-2,0V15H21v5.18a3,3,0,1,1-2,0V15H10.18L.79,63h42ZM24.79,54.6l-.46.22-.45-.24c-11-5.87-10.11-13.13-9.59-15.22.92-3.69,4-6.36,7.33-6.36A6.48,6.48,0,0,1,26,34.75,7.56,7.56,0,0,1,30.63,33h0a6.39,6.39,0,0,1,6.15,5.24C37.84,42.8,35.24,49.49,24.79,54.6Z"></path><path d="M30.64,35h0a6,6,0,0,0-4,1.84l-.75.7-.68-.77A4.78,4.78,0,0,0,21.61,35c-2.42,0-4.68,2-5.39,4.85-1.13,4.51,1.91,9.24,8.14,12.72,9-4.56,11.29-10.3,10.47-13.87A4.44,4.44,0,0,0,30.64,35Z"></path><path d="M21,12a9,9,0,0,1,18,0v3h2V12a11,11,0,0,0-22,0v3h2Z"></path></g></g><g id="SvgjsG1448" featureKey="nameFeature-0" transform="matrix(0.6087258758840486,0,0,0.6087258758840486,119.17969974184695,35.1728036184711)" fill="#111111"><path d="M10.918 33.7891 l-0.019531 -0.039063 c1.7383 0 3.1836 -1.4453 3.1836 -3.1836 c0 -1.3477 -0.52734 -2.207 -1.6016 -2.5977 c-2.2656 -0.83984 -1.7188 -0.64453 -3.9258 -1.4063 c-2.3242 -0.80078 -4.4727 -2.3828 -5.918 -4.3555 c-0.85938 -1.1719 -1.2891 -2.6172 -1.2891 -4.3555 c0 -2.6172 0.9375 -4.8633 2.8125 -6.7383 s4.1211 -2.8125 6.7578 -2.8125 c2.6172 0 4.8633 0.9375 6.7383 2.8125 s2.8125 4.1211 2.8125 6.7383 l-6.3477 0 c0 -1.7188 -1.4453 -3.1641 -3.1641 -3.1641 c-1.7383 0 -3.1836 1.4453 -3.1836 3.1836 c0 1.1328 0.44922 1.9922 1.3672 2.5781 c1.875 1.2109 1.6602 0.97656 3.9063 1.6406 c2.4219 0.70313 4.6094 2.207 6.1133 4.1406 c0.87891 1.1328 1.3281 2.5977 1.3281 4.375 c0 2.6367 -0.9375 4.8828 -2.8125 6.7578 s-4.1211 2.8125 -6.7383 2.8125 c-2.6367 0 -4.8828 -0.9375 -6.7578 -2.8125 s-2.8125 -4.1211 -2.8125 -6.7578 l6.3672 0 c0 1.7578 1.4258 3.1836 3.1836 3.1836 z M23.37890625 8.515999999999998 l6.3086 0 l0 12.598 l9.4336 0 l0 -12.598 l6.3086 0 l0 31.484 l-6.3086 0 l0 -12.598 l-9.4336 0 l0 12.598 l-6.3086 0 l0 -31.484 z M63.6721875 8.359000000000002 c4.375 0 8.125 1.5625 11.25 4.6875 s4.6875 6.875 4.6875 11.25 s-1.5625 8.125 -4.6875 11.23 s-6.875 4.668 -11.25 4.668 s-8.125 -1.5625 -11.23 -4.668 s-4.668 -6.8555 -4.668 -11.23 s1.5625 -8.125 4.668 -11.25 s6.8555 -4.6875 11.23 -4.6875 z M63.6721875 14.707 c-2.6367 0 -4.8828 0.9375 -6.7383 2.8125 s-2.793 4.1211 -2.793 6.7383 c0 2.6367 0.9375 4.8828 2.793 6.7383 s4.1016 2.793 6.7383 2.793 c2.6172 0 4.8633 -0.9375 6.7383 -2.793 s2.8125 -4.1016 2.8125 -6.7383 c0 -2.6172 -0.9375 -4.8633 -2.8125 -6.7383 s-4.1211 -2.8125 -6.7383 -2.8125 z M81.9140625 40 l0 -9.4531 l0 -11.016 l0 -11.016 l6.3086 0 l4.707 0 c3.0273 0 5.625 1.0742 7.793 3.2422 s3.2422 4.7656 3.2422 7.793 s-1.0742 5.625 -3.2422 7.7734 s-4.7656 3.2227 -7.793 3.2227 l-4.707 0 l0 9.4531 l-6.3086 0 z M88.2226625 24.258 l4.707 0.019531 c1.3086 0 2.4219 -0.46875 3.3398 -1.3867 s1.3867 -2.0313 1.3867 -3.3398 c0 -1.2891 -0.46875 -2.4023 -1.3867 -3.3398 s-2.0313 -1.4063 -3.3398 -1.4063 l-4.707 0 l0 4.7266 l0 4.7266 z M106.69921875 40 l0 -9.4531 l0 -11.016 l0 -11.016 l6.3086 0 l4.707 0 c3.0273 0 5.625 1.0742 7.793 3.2422 s3.2422 4.7656 3.2422 7.793 s-1.0742 5.625 -3.2422 7.7734 s-4.7656 3.2227 -7.793 3.2227 l-4.707 0 l0 9.4531 l-6.3086 0 z M113.00781875 24.258 l4.707 0.019531 c1.3086 0 2.4219 -0.46875 3.3398 -1.3867 s1.3867 -2.0313 1.3867 -3.3398 c0 -1.2891 -0.46875 -2.4023 -1.3867 -3.3398 s-2.0313 -1.4063 -3.3398 -1.4063 l-4.707 0 l0 4.7266 l0 4.7266 z M131.484375 40 l0 -31.484 l6.3086 0 l0 31.484 l-6.3086 0 z M140.91796875 7.93 l18.887 17.988 l0 -17.402 l6.3086 0 l0 32.07 l-18.887 -18.008 l0 17.422 l-6.3086 0 l0 -32.07 z M184.35578125 8.359000000000002 l0.019531 0.058594 c2.1875 0 4.2383 0.41016 6.1719 1.25 s3.6328 1.9727 5.0977 3.3984 l-4.4922 4.4922 c-1.8945 -1.875 -4.1406 -2.8125 -6.7383 -2.8125 c-2.6367 0 -4.8828 0.9375 -6.7383 2.8125 s-2.793 4.1211 -2.793 6.7383 c0 2.6367 0.9375 4.8828 2.793 6.7383 s4.1016 2.793 6.7383 2.793 c2.0703 0 3.9258 -0.58594 5.5469 -1.7773 s2.7734 -2.7148 3.4375 -4.5703 l-9.0039 0 l0 -6.3477 l9.0039 0 l3.6914 0 l2.8906 0 c0.21484 0.99609 0.3125 2.0508 0.3125 3.1641 c0 4.375 -1.5625 8.125 -4.6875 11.23 s-6.875 4.668 -11.25 4.668 s-8.125 -1.5625 -11.23 -4.668 s-4.668 -6.8555 -4.668 -11.23 s1.5625 -8.125 4.668 -11.25 s6.8555 -4.6875 11.23 -4.6875 z M214.31640625 8.515999999999998 l6.3086 0 l0 12.598 l9.4336 0 l0 -12.598 l6.3086 0 l0 31.484 l-6.3086 0 l0 -12.598 l-9.4336 0 l0 12.598 l-6.3086 0 l0 -31.484 z M254.6096875 8.359000000000002 c4.375 0 8.125 1.5625 11.25 4.6875 s4.6875 6.875 4.6875 11.25 s-1.5625 8.125 -4.6875 11.23 s-6.875 4.668 -11.25 4.668 s-8.125 -1.5625 -11.23 -4.668 s-4.668 -6.8555 -4.668 -11.23 s1.5625 -8.125 4.668 -11.25 s6.8555 -4.6875 11.23 -4.6875 z M254.6096875 14.707 c-2.6367 0 -4.8828 0.9375 -6.7383 2.8125 s-2.793 4.1211 -2.793 6.7383 c0 2.6367 0.9375 4.8828 2.793 6.7383 s4.1016 2.793 6.7383 2.793 c2.6172 0 4.8633 -0.9375 6.7383 -2.793 s2.8125 -4.1016 2.8125 -6.7383 c0 -2.6172 -0.9375 -4.8633 -2.8125 -6.7383 s-4.1211 -2.8125 -6.7383 -2.8125 z M272.8515625 8.515999999999998 l6.3086 0 l0 25.176 l12.578 0 l0 6.3086 l-18.887 0 l0 -31.484 z M294.08203125 40 l0 -31.484 l6.3086 0 l0 31.484 l-6.3086 0 z M318.633125 8.359000000000002 l-0.019531 0.078125 c2.1875 0 4.2383 0.41016 6.1719 1.25 s3.6328 1.9727 5.0977 3.3984 l-4.4922 4.4922 c-1.8945 -1.875 -4.1406 -2.8125 -6.7383 -2.8125 c-2.6367 0 -4.8828 0.9375 -6.7383 2.8125 s-2.793 4.1211 -2.793 6.7383 c0 2.6367 0.9375 4.8828 2.793 6.7383 s4.1016 2.793 6.7383 2.793 s4.8828 -0.9375 6.7578 -2.8125 l4.4922 4.4922 c-1.4648 1.4453 -3.1641 2.5781 -5.0977 3.418 s-3.9844 1.25 -6.1719 1.25 c-4.375 0 -8.125 -1.5625 -11.23 -4.668 s-4.668 -6.8555 -4.668 -11.23 s1.5625 -8.125 4.668 -11.25 s6.8555 -4.6875 11.23 -4.6875 z"></path></g>
			</g>
		</svg>
	